HIERARCHY
ROOT joint_0
{
	OFFSET 0.000000 0.000000 0.000000
	CHANNELS 6 Xposition Yposition Zposition Zrotation Yrotation Xrotation 
	JOINT joint_1
	{
		OFFSET 11.612000 -0.419000 106.198000
		CHANNELS 3 Zrotation Yrotation Xrotation
		JOINT joint_2
		{
			OFFSET -1.708000 -1.022000 97.564090
			CHANNELS 3 Zrotation Yrotation Xrotation
			JOINT joint_3
			{
				OFFSET -4.121000 -1.538000 97.375000
				CHANNELS 3 Zrotation Yrotation Xrotation
				JOINT joint_4
				{
					OFFSET 5.442000 -2.123000 132.795900
					CHANNELS 3 Zrotation Yrotation Xrotation
					JOINT joint_5
					{
						OFFSET 21.935000 0.195000 82.975100
						CHANNELS 3 Zrotation Yrotation Xrotation
						End Site
						{
							OFFSET 0.000000 0.000000 0.000000
						}
					}
				}
				JOINT joint_6
				{
					OFFSET 4.262000 -30.048000 73.899900
					CHANNELS 3 Zrotation Yrotation Xrotation
					JOINT joint_7
					{
						OFFSET 9.731000 -136.810010 -21.963010
						CHANNELS 3 Zrotation Yrotation Xrotation
						JOINT joint_8
						{
							OFFSET 33.360000 -35.709000 -267.597900
							CHANNELS 3 Zrotation Yrotation Xrotation
							JOINT joint_9
							{
								OFFSET 36.156000 -29.759000 -240.558040
								CHANNELS 3 Zrotation Yrotation Xrotation
								End Site
								{
									OFFSET 0.000000 0.000000 0.000000
								}
							}
						}
					}
				}
				JOINT joint_10
				{
					OFFSET 2.027000 27.734000 74.914920
					CHANNELS 3 Zrotation Yrotation Xrotation
					JOINT joint_11
					{
						OFFSET -5.183000 136.784000 -23.604980
						CHANNELS 3 Zrotation Yrotation Xrotation
						JOINT joint_12
						{
							OFFSET 29.806000 37.229000 -267.809940
							CHANNELS 3 Zrotation Yrotation Xrotation
							JOINT joint_13
							{
								OFFSET 36.890000 46.524990 -237.772030
								CHANNELS 3 Zrotation Yrotation Xrotation
								End Site
								{
									OFFSET 0.000000 0.000000 0.000000
								}
							}
						}
					}
				}
			}
		}
	}
	JOINT joint_14
	{
		OFFSET -7.290000 -102.873990 -124.314940
		CHANNELS 3 Zrotation Yrotation Xrotation
		JOINT joint_15
		{
			OFFSET -15.466000 -19.909010 -438.533020
			CHANNELS 3 Zrotation Yrotation Xrotation
			JOINT joint_16
			{
				OFFSET -26.899000 -18.922000 -464.797000
				CHANNELS 3 Zrotation Yrotation Xrotation
				JOINT joint_17
				{
					OFFSET 179.329000 -12.011000 -84.174000
					CHANNELS 3 Zrotation Yrotation Xrotation
					End Site
					{
						OFFSET 0.000000 0.000000 0.000000
					}
				}
			}
		}
	}
	JOINT joint_18
	{
		OFFSET -6.225000 101.546000 -125.479980
		CHANNELS 3 Zrotation Yrotation Xrotation
		JOINT joint_19
		{
			OFFSET -13.973000 7.996000 -438.963010
			CHANNELS 3 Zrotation Yrotation Xrotation
			JOINT joint_20
			{
				OFFSET -44.294000 5.716000 -463.813970
				CHANNELS 3 Zrotation Yrotation Xrotation
				JOINT joint_21
				{
					OFFSET 178.505000 -4.689000 -85.139000
					CHANNELS 3 Zrotation Yrotation Xrotation
					End Site
					{
						OFFSET 0.000000 0.000000 0.000000
					}
				}
			}
		}
	}
}
MOTION
Frames: 9
Frame Time: 0.016667
-71.313000 -43.707000 1131.109010 0.366198 -0.861653 0.257337 -0.209797 0.868239 0.235901 -0.225455 -0.164525 -0.037617 -0.217925 0.183949 0.010405 0.028087 0.098633 -0.107091 0.000000 0.000000 0.000000 0.198130 -0.124905 -0.014723 -0.002844 -0.098775 -0.100999 -0.019907 -0.001576 -0.133754 0.000000 0.000000 0.000000 0.380760 -0.262392 -0.078694 -0.083106 -0.359669 -0.533152 0.091156 0.365187 0.126980 0.000000 0.000000 0.000000 -0.171399 0.235642 -0.370927 -0.193348 0.326060 0.136199 -0.176401 0.202046 -0.069255 0.000000 0.000000 0.000000 -0.112164 0.828532 -0.094733 -0.134771 -1.002539 -0.431084 -0.146459 1.066249 -0.041819 0.000000 0.000000 0.000000 
-71.081000 -43.512000 1131.183960 0.362412 -0.774503 0.257384 -0.260518 0.931968 0.290649 -0.278261 -0.172972 -0.058962 -0.269029 0.191050 0.023416 0.032210 -0.054695 -0.121311 0.000000 0.000000 0.000000 0.300334 -0.145113 -0.009361 -0.011285 -0.108025 -0.191316 0.004206 -0.083598 -0.040839 0.000000 0.000000 0.000000 0.600037 -0.191535 -0.037234 -0.097791 -0.333175 -0.596834 0.051619 0.292268 -0.035902 0.000000 0.000000 0.000000 -0.165187 0.159271 -0.381846 -0.190064 0.307838 0.133602 -0.174785 0.218444 -0.067399 0.000000 0.000000 0.000000 -0.109389 0.766319 -0.101610 -0.131578 -1.045958 -0.440170 -0.143469 1.092629 -0.039700 0.000000 0.000000 0.000000 
-70.390000 -43.278000 1131.406980 0.365958 -0.519609 0.263048 -0.344397 1.079022 0.352867 -0.365902 -0.207347 -0.106095 -0.352349 0.214233 0.056660 0.028749 -0.451034 -0.104532 0.000000 0.000000 0.000000 0.177636 -0.187142 -0.205320 0.004277 -0.155500 -0.151709 0.080307 -0.366709 0.232189 0.000000 0.000000 0.000000 0.537752 0.071946 0.311380 -0.133526 -0.086466 -0.812908 -0.109418 -0.126959 -0.545377 0.000000 0.000000 0.000000 -0.151752 -0.039907 -0.396725 -0.181458 0.215456 0.118358 -0.173410 0.275587 -0.062928 0.000000 0.000000 0.000000 -0.116956 0.598154 -0.105054 -0.138293 -1.203550 -0.463910 -0.149318 1.185387 -0.040049 0.000000 0.000000 0.000000 
-69.315000 -43.023000 1131.707030 0.361626 -0.164241 0.270612 -0.445599 1.275839 0.419261 -0.471810 -0.253696 -0.167314 -0.452622 0.241972 0.099962 0.020826 -0.997147 -0.068451 0.000000 0.000000 0.000000 -0.061071 -0.231674 -0.495719 0.030710 -0.214896 -0.053780 0.186570 -0.757958 0.614960 0.000000 0.000000 0.000000 0.326773 0.446763 0.798354 -0.176922 0.288228 -1.100419 -0.332854 -0.739073 -1.217559 0.000000 0.000000 0.000000 -0.131468 -0.311480 -0.415891 -0.167732 0.085874 0.102440 -0.169325 0.350299 -0.056008 0.000000 0.000000 0.000000 -0.125088 0.372227 -0.106972 -0.145441 -1.424326 -0.493565 -0.155077 1.310211 -0.039509 0.000000 0.000000 0.000000 
-67.723000 -42.846000 1131.936040 0.298496 0.189284 0.274269 -0.527914 1.447865 0.461905 -0.557729 -0.293994 -0.204059 -0.534799 0.267612 0.125501 0.018866 -1.548142 -0.052964 0.000000 0.000000 0.000000 -0.228321 -0.213651 -0.699965 0.044360 -0.206287 0.014671 0.283723 -1.111310 0.965098 0.000000 0.000000 0.000000 0.082695 0.794943 1.133516 -0.196086 0.654914 -1.318352 -0.496352 -1.214859 -1.681390 0.000000 0.000000 0.000000 -0.099126 -0.578507 -0.441320 -0.144838 -0.003154 0.115738 -0.151170 0.381588 -0.045392 0.000000 0.000000 0.000000 -0.107119 0.171707 -0.113612 -0.127034 -1.611877 -0.506720 -0.135747 1.386725 -0.028278 0.000000 0.000000 0.000000 
-65.381000 -42.786000 1132.053960 0.143488 0.545230 0.267750 -0.584888 1.552728 0.464374 -0.616119 -0.326557 -0.194922 -0.592918 0.294563 0.117260 0.033429 -2.119850 -0.097307 0.000000 0.000000 0.000000 -0.246342 -0.068723 -0.753675 0.031191 -0.058262 0.012083 0.384423 -1.485177 1.318185 0.000000 0.000000 0.000000 -0.208531 1.114112 1.219324 -0.178527 1.020510 -1.426830 -0.572645 -1.478378 -1.850707 0.000000 0.000000 0.000000 -0.037322 -0.815641 -0.474545 -0.093073 -0.086819 0.169357 -0.100883 0.377591 -0.022058 0.000000 0.000000 0.000000 -0.054411 0.039200 -0.124473 -0.076534 -1.817000 -0.489800 -0.083194 1.421505 -0.002305 0.000000 0.000000 0.000000 
-62.522000 -42.804000 1132.100950 -0.070240 0.899651 0.255718 -0.623360 1.632734 0.442149 -0.654982 -0.354910 -0.161603 -0.633333 0.322361 0.091618 0.054716 -2.699718 -0.163767 0.000000 0.000000 0.000000 -0.185639 0.140551 -0.709341 0.003619 0.158753 -0.036356 0.475614 -1.823948 1.633626 0.000000 0.000000 0.000000 -0.550474 1.403503 1.160387 -0.138760 1.376508 -1.471455 -0.588817 -1.583989 -1.826504 0.000000 0.000000 0.000000 0.036495 -1.048816 -0.513896 -0.032203 -0.129940 0.252342 -0.036654 0.331904 0.005028 0.000000 0.000000 0.000000 0.024047 -0.068344 -0.140737 -0.000839 -1.989100 -0.455970 -0.005866 1.409114 0.034236 0.000000 0.000000 0.000000 
-59.707000 -42.874000 1132.040040 -0.293924 1.140233 0.249923 -0.626367 1.737286 0.421179 -0.658948 -0.375160 -0.134232 -0.638574 0.347636 0.071471 0.066633 -3.099430 -0.197033 0.000000 0.000000 0.000000 -0.083498 0.287402 -0.593277 -0.020738 0.314594 -0.079360 0.475707 -1.816450 1.636392 0.000000 0.000000 0.000000 -0.830929 1.528202 1.006877 -0.088188 1.564474 -1.456746 -0.504598 -1.374694 -1.538081 0.000000 0.000000 0.000000 0.075189 -1.282197 -0.556855 -0.017851 0.055289 0.362087 -0.001363 0.152670 0.009586 0.000000 0.000000 0.000000 0.130046 -0.199282 -0.171309 0.107644 -1.878783 -0.425646 0.097796 1.245842 0.079366 0.000000 0.000000 0.000000 
-57.144000 -43.024000 1131.839970 -0.535916 1.214656 0.264937 -0.574284 1.870331 0.411306 -0.608931 -0.381558 -0.124699 -0.588781 0.369028 0.066414 0.062655 -3.253319 -0.178024 0.000000 0.000000 0.000000 0.078831 0.310162 -0.386867 -0.037288 0.349181 -0.106925 0.325785 -1.215074 1.147980 0.000000 0.000000 0.000000 -0.981504 1.383064 0.721743 -0.016288 1.472777 -1.325588 -0.255194 -0.624045 -0.859137 0.000000 0.000000 0.000000 0.049211 -1.559387 -0.614927 -0.089867 0.628556 0.518179 -0.023036 -0.238186 -0.026766 0.000000 0.000000 0.000000 0.284135 -0.405026 -0.232629 0.273406 -1.307199 -0.405425 0.247832 0.858086 0.140725 0.000000 0.000000 0.000000 
